# xmcd
#
# Track frame offsets:
#	150
#	12477
#	24425
#	35870
#	46950
#	56962
#	67062
#	75857
#	95157
#	107227
#	123410
#	136537
#	156360
#	168607
#	183532
#	196482
#	205707
#	229420
#	244617
#	257985
#	268832
#	285422
#	299522
#
# Disc length: 4224 seconds
#
# Revision: 0
# Processed by: cddbd v1.5.2PL0 Copyright (c) Steve Scherf et al.
# Submitted via: EZCDAudioConverter 1.3.4.1
#
DISCID=5f107e17
DTITLE=Serge Gainsbourg - Initials SG
DYEAR=2002
DGENRE=
TTITLE0=Le Poinçonneur Des Lilas
TTITLE1=Intoxicated Man
TTITLE2=La Javanaise
TTITLE3=Chez Les Yé-Yé
TTITLE4=Couleur Café
TTITLE5=Qui Est In Qui Est Out
TTITLE6=Docteur Jekyll Et Monsieur Hyde
TTITLE7=Bonnie And Clyde
TTITLE8=Ford Mustang
TTITLE9=Initials BB
TTITLE10=Requiem Pour Un C...
TTITLE11=Je T'Aime... Moi Non Plus
TTITLE12=L'Anamour
TTITLE13=69 Année Érotique
TTITLE14=Sous Le Soleil Exactement
TTITLE15=Ballade De Melody Nelson
TTITLE16=La Décadanse
TTITLE17=Je Suis Venu Te Dire Que Je M'en Vais
TTITLE18=L'Homme A Tête De Chou
TTITLE19=Marilou Sous La Neige
TTITLE20=Sea Sex And Sun
TTITLE21=Aux Armes Et Caetera
TTITLE22=Dieu Fumeur De Havanes
EXTD=
EXTT0=
EXTT1=
EXTT2=
EXTT3=
EXTT4=
EXTT5=
EXTT6=
EXTT7=
EXTT8=
EXTT9=
EXTT10=
EXTT11=
EXTT12=
EXTT13=
EXTT14=
EXTT15=
EXTT16=
EXTT17=
EXTT18=
EXTT19=
EXTT20=
EXTT21=
EXTT22=
PLAYORDER=
